<?xml version="1.0" standalone="no"?>
<!DOCTYPE svg PUBLIC "-//W3C//DTD SVG 20010904//EN"
 "http://www.w3.org/TR/2001/REC-SVG-20010904/DTD/svg10.dtd">
<svg version="1.0" xmlns="http://www.w3.org/2000/svg"
 width="512.000000pt" height="512.000000pt" viewBox="0 0 512.000000 512.000000"
 preserveAspectRatio="xMidYMid meet">

<g transform="translate(0.000000,512.000000) scale(0.100000,-0.100000)"
fill="#000000" stroke="none">
<path d="M172 4755 c-59 -18 -106 -57 -139 -113 l-28 -47 -3 -1505 c-3 -1693
-8 -1564 73 -1646 78 -77 34 -74 1027 -74 l878 0 0 -280 0 -279 -372 -3 c-408
-3 -399 -2 -462 -64 -67 -68 -88 -183 -46 -263 25 -50 89 -105 139 -119 28 -9
376 -12 1318 -12 1424 0 1347 -4 1415 67 52 55 68 93 68 163 0 68 -20 117 -66
164 -63 62 -54 61 -461 64 l-373 3 0 279 0 280 878 0 c992 0 949 -3 1026 74
82 81 76 -45 76 1626 0 1671 6 1545 -76 1626 -80 80 137 74 -2488 73 -1924 0
-2349 -3 -2384 -14z m4576 -1682 l-3 -1328 -2185 0 -2185 0 -3 1328 -2 1327
2190 0 2190 0 -2 -1327z"/>
<path d="M2750 4008 c-24 -13 -52 -36 -61 -53 -30 -51 -539 -1644 -539 -1683
0 -46 30 -96 72 -123 26 -16 45 -19 91 -16 50 3 63 8 93 38 32 32 52 89 299
854 146 451 265 836 265 856 0 21 -9 50 -22 69 -52 75 -124 96 -198 58z"/>
<path d="M1565 3399 c-225 -104 -418 -198 -428 -207 -26 -23 -45 -61 -48 -97
-10 -122 -5 -126 481 -351 442 -205 466 -213 527 -168 71 53 91 129 53 203
-24 48 -33 53 -310 180 -124 57 -228 107 -233 110 -4 4 104 59 240 122 136 62
259 124 274 137 51 42 63 139 24 198 -25 39 -74 64 -125 64 -37 0 -115 -33
-455 -191z"/>
<path d="M3023 3570 c-56 -34 -82 -95 -69 -164 13 -67 40 -86 311 -211 140
-65 252 -122 248 -125 -5 -4 -116 -58 -249 -119 -133 -62 -250 -118 -261 -126
-53 -37 -69 -139 -30 -195 36 -53 72 -75 125 -75 40 1 111 31 452 189 279 130
415 198 438 220 59 57 62 149 7 214 -16 20 -90 59 -232 125 -114 53 -300 139
-413 192 -224 104 -265 113 -327 75z"/>
</g>
</svg>
